<mxfile host="app.diagrams.net" modified="2021-05-15T06:27:41.326Z" agent="5.0 (Windows)" etag="3TzEmhG9uWe-hQxR-m84" version="14.6.13" type="github">
  <diagram id="CwICqwzEgNtDgUYNRsU3" name="Page-1">
    <mxGraphModel dx="1102" dy="583" grid="1" gridSize="10" guides="1" tooltips="1" connect="1" arrows="1" fold="1" page="1" pageScale="1" pageWidth="850" pageHeight="1100" math="0" shadow="0">
      <root>
        <mxCell id="0" />
        <mxCell id="1" parent="0" />
        <mxCell id="HQ3uRS1n8Fel5w2c3H8v-1" value="" style="verticalLabelPosition=bottom;verticalAlign=top;html=1;shadow=0;dashed=0;strokeWidth=1;shape=mxgraph.android.phone2;strokeColor=#c0c0c0;aspect=fixed;" vertex="1" parent="1">
          <mxGeometry x="270" y="10" width="296.15" height="577.5" as="geometry" />
        </mxCell>
      </root>
    </mxGraphModel>
  </diagram>
</mxfile>
